<svg xmlns="http://www.w3.org/2000/svg" viewBox="0 0 800 600" role="img" aria-label="Ballast finance companion">
  <defs>
    <linearGradient id="g3" x1="0" y1="0" x2="0" y2="1">
      <stop offset="0" stop-color="#0c2630"/><stop offset="1" stop-color="#04131a"/>
    </linearGradient>
    <linearGradient id="bar" x1="0" y1="0" x2="0" y2="1">
      <stop offset="0" stop-color="#5fe0d8"/><stop offset="1" stop-color="#2c8c92"/>
    </linearGradient>
  </defs>
  <rect width="800" height="600" fill="url(#g3)"/>
  <text x="48" y="78" font-family="monospace" font-size="13" fill="#5fe0d8" letter-spacing="4">BALLAST</text>
  <text x="48" y="160" font-family="Georgia,serif" font-size="58" fill="#dff2f6">$12,940</text>
  <text x="48" y="188" font-family="monospace" font-size="12" fill="#6fb37a" letter-spacing="2">▲ steady · on course</text>
  <!-- calm horizon line -->
  <line x1="48" y1="360" x2="752" y2="360" stroke="#16414c" stroke-width="1"/>
  <path d="M48 360 C 180 350, 280 372, 400 358 S 620 344, 752 356" fill="none" stroke="#3f9fae" stroke-width="2" opacity="0.7"/>
  <!-- bars -->
  <g>
    <rect x="120" y="430" width="44" height="90" rx="4" fill="url(#bar)" opacity="0.85"/>
    <rect x="210" y="400" width="44" height="120" rx="4" fill="url(#bar)" opacity="0.85"/>
    <rect x="300" y="450" width="44" height="70" rx="4" fill="url(#bar)" opacity="0.6"/>
    <rect x="390" y="410" width="44" height="110" rx="4" fill="url(#bar)" opacity="0.85"/>
    <rect x="480" y="440" width="44" height="80" rx="4" fill="url(#bar)" opacity="0.6"/>
    <rect x="570" y="395" width="44" height="125" rx="4" fill="url(#bar)"/>
    <rect x="660" y="425" width="44" height="95" rx="4" fill="url(#bar)" opacity="0.7"/>
  </g>
</svg>
