<svg xmlns="http://www.w3.org/2000/svg" viewBox="0 0 800 600" role="img" aria-label="Tidewatch dashboard">
  <defs>
    <linearGradient id="g1" x1="0" y1="0" x2="0" y2="1">
      <stop offset="0" stop-color="#0a2c3a"/><stop offset="1" stop-color="#04141d"/>
    </linearGradient>
    <linearGradient id="w1" x1="0" y1="0" x2="1" y2="0">
      <stop offset="0" stop-color="#3fd0c8" stop-opacity="0"/><stop offset="1" stop-color="#3fd0c8"/>
    </linearGradient>
  </defs>
  <rect width="800" height="600" fill="url(#g1)"/>
  <g font-family="monospace" fill="#5fe0d8" opacity="0.85">
    <text x="48" y="78" font-size="13" letter-spacing="4">TIDEWATCH · LIVE</text>
  </g>
  <text x="48" y="150" font-family="Georgia,serif" font-size="60" fill="#dff2f6">1.84<tspan font-size="22" fill="#5b7d8c">m</tspan></text>
  <text x="48" y="178" font-family="monospace" font-size="12" fill="#5b7d8c" letter-spacing="3">MEAN TIDE · RISING</text>
  <!-- wave graph -->
  <path d="M48 430 C 130 360, 190 470, 270 410 S 410 330, 500 400 S 660 470, 752 380" fill="none" stroke="url(#w1)" stroke-width="3"/>
  <path d="M48 470 C 130 420, 190 510, 270 460 S 410 400, 500 450 S 660 500, 752 440" fill="none" stroke="#2c8c92" stroke-width="2" opacity="0.6"/>
  <g stroke="#16414c" stroke-width="1">
    <line x1="48" y1="520" x2="752" y2="520"/><line x1="48" y1="300" x2="752" y2="300" opacity="0.5"/>
  </g>
  <g fill="#5fe0d8"><circle cx="270" cy="410" r="4"/><circle cx="500" cy="400" r="4"/></g>
  <g font-family="monospace" font-size="11" fill="#456" letter-spacing="2">
    <text x="48" y="545">00:00</text><text x="370" y="545">12:00</text><text x="700" y="545">24:00</text>
  </g>
</svg>
